<svg xmlns="http://www.w3.org/2000/svg" viewBox="0 0 70.81 62.03"><defs><style>.cls-1{fill:#fff;}</style></defs><title>Ícono home</title><g id="Capa_2" data-name="Capa 2"><g id="Capa_1-2" data-name="Capa 1"><path class="cls-1" d="M58.5,62a2.3,2.3,0,0,0,2.3-2.29V35.24h6a4,4,0,0,0,2.48-7.09L61.53,21.4V10.16a2.38,2.38,0,0,0-2.38-2.38H54.23a2.38,2.38,0,0,0-2.38,2.38V13L38,1a4,4,0,0,0-5.22,0L1.37,28.25a4,4,0,0,0,2.61,7h6v24.5A2.3,2.3,0,0,0,12.29,62H25.83V44.21a4.56,4.56,0,0,1,4.56-4.55h10A4.56,4.56,0,0,1,45,44.21V62Z"/></g></g></svg>